# xmcd CD database file
#
# Track frame offsets:
#	150
#	12684
#	27040
#	38244
#	49863
#	62539
#	74635
#	85660
#	97104
#	110025
#	121566
#	133435
#	146284
#	156808
#	167877
#	181365
#	192246
#	203771
#	216721
#	229568
#
# Disc length: 3206 seconds
#
# Revision: 0
# Processed by: cddbd v1.5.2PL0 Copyright (c) Steve Scherf et al.
# Submitted via: CDex 1.70beta2
#
DISCID=260c8414
DTITLE=Tommy Duchesne - De L'Accordéon À La Manière De
DYEAR=1900
DGENRE=Country
TTITLE0=REEL DE L'OISEAU BLEU
TTITLE1=VOTRE P'TIT CHIEN MADAME
TTITLE2=LE BREAKDOWN DE PORTNEUF
TTITLE3=TOUT D'UN COUP TU MARIES MA FILLE
TTITLE4=REEL DU MONEY MUSK
TTITLE5=POLKA DES CHEVALIERS
TTITLE6=CLOG DE SOREL
TTITLE7=SWING LA BAQUAISE
TTITLE8=LES NOCES
TTITLE9=LE REEL DU PENDU
TTITLE10=SET AMERICAIN
TTITLE11=REEL CHICKEN REEL
TTITLE12=BREAKDOWN DE SOREL
TTITLE13=QUADRIKKE DE CHURCHILL
TTITLE14=PAUL JONES DU SAGUENAY
TTITLE15=REEL DU CHAPERON D'OR
TTITLE16=QUADRILLE À ROBERT
TTITLE17=REEL À BERNARD
TTITLE18=QUADRILLE DE CHARLEVOIS
TTITLE19=REEL DES CHEVALIERS
EXTD=
EXTT0=
EXTT1=
EXTT2=
EXTT3=
EXTT4=
EXTT5=
EXTT6=
EXTT7=
EXTT8=
EXTT9=
EXTT10=
EXTT11=
EXTT12=
EXTT13=
EXTT14=
EXTT15=
EXTT16=
EXTT17=
EXTT18=
EXTT19=
PLAYORDER=
